Coordinates
version=1
nRows=6
nColumns=46
inDegrees=yes

Units are S.I. units (second, meters, Newtons, ...)
Angles are in degrees.

endheader
time	pelvis_tilt	pelvis_list	pelvis_rotation	pelvis_tx	pelvis_ty	pelvis_tz	bb_angle	bb_tx	bb_ty	bb_tz	hip_flexion_r	hip_adduction_r	hip_rotation_r	knee_angle_r	knee_angle_r_beta	ankle_angle_r	subtalar_angle_r	mtp_angle_r	crank_angle_r	hip_flexion_l	hip_adduction_l	hip_rotation_l	knee_angle_l	knee_angle_l_beta	ankle_angle_l	subtalar_angle_l	mtp_angle_l	crank_angle_l	lumbar_extension	lumbar_bending	lumbar_rotation	arm_flex_r	arm_add_r	arm_rot_r	elbow_flex_r	pro_sup_r	wrist_flex_r	wrist_dev_r	arm_flex_l	arm_add_l	arm_rot_l	elbow_flex_l	pro_sup_l	wrist_flex_l	wrist_dev_l
      5.00500000	    -18.55813507	      8.78565800	      0.80388564	      0.31088216	      1.06287811	     -0.26418357	      0.00000000	      0.50000000	      0.00000000	      0.25000000	     48.16201271	     -9.35279486	      2.99619240	     43.72270057	      0.76310508	     -5.64375276	     -7.73449390	      0.00000000	      0.00000000	     72.30610546	     -9.18830128	      0.04600188	    111.34717301	      1.94337478	     -5.81108336	      1.41934044	      0.00000000	      0.00000000	    -71.36118974	     -1.20584479	     -4.90299726	     65.43157718	    -11.50440540	     22.35526609	     95.82724657	     49.25624504	      0.00000000	      0.00000000	     65.00970221	    -32.14431283	     22.87662739	     96.20595377	     47.36319753	      0.00000000	      0.00000000
      5.01000000	    -18.78227008	      8.71755542	      1.15980603	      0.31015093	      1.06220075	     -0.26405762	      0.00000000	      0.50000000	      0.00000000	      0.25000000	     47.15979599	     -9.82524912	      1.93308483	     42.37561057	      0.73959393	     -6.42637217	     -6.72430512	      0.00000000	      0.00000000	     73.91780082	     -8.91548184	      0.63312778	    112.50131641	      1.96351838	     -4.80809555	      1.94964263	      0.00000000	      0.00000000	    -71.21879612	     -1.15759808	     -4.99349893	     65.07722604	    -11.49047492	     21.84036563	     96.04902417	     49.22801440	      0.00000000	      0.00000000	     65.50647745	    -32.62713755	     23.69841659	     96.72978165	     47.52096490	      0.00000000	      0.00000000
      5.01500000	    -19.00021152	      8.96871797	      1.32806543	      0.30944798	      1.06166568	     -0.26361606	      0.00000000	      0.50000000	      0.00000000	      0.25000000	     46.26070948	    -10.28081449	      1.64423968	     41.17067481	      0.71856383	     -7.05102610	     -6.18808447	      0.00000000	      0.00000000	     75.36465793	     -8.59109856	      0.80789819	    113.50346825	      1.98100923	     -3.25988989	      1.44501157	      0.00000000	      0.00000000	    -71.08646738	     -1.47464887	     -5.43974962	     64.94921499	    -11.59793676	     21.65194526	     96.11804079	     49.21640009	      0.00000000	      0.00000000	     65.90151244	    -32.79483209	     23.86108404	     96.90035933	     47.55890686	      0.00000000	      0.00000000
      5.02000000	    -19.07173201	      9.00924989	      1.59768287	      0.30880542	      1.06163130	     -0.26357074	      0.00000000	      0.50000000	      0.00000000	      0.25000000	     45.14505306	    -10.69293023	      1.02688184	     39.95135482	      0.69728268	     -7.75879633	     -5.23893585	      0.00000000	      0.00000000	     76.65958706	     -8.19535961	      1.20823895	    114.31167940	      1.99511518	     -2.37601362	      2.01791616	      0.00000000	      0.00000000	    -71.20909710	     -1.58848561	     -5.73149623	     64.72751934	    -11.58002473	     20.77993134	     96.46313658	     49.15880856	      0.00000000	      0.00000000	     66.61891731	    -33.41029465	     25.24418538	     97.84099852	     47.82879907	      0.00000000	      0.00000000
      5.02500000	    -19.34259748	      9.31752308	      1.68741887	      0.30800419	      1.06149661	     -0.26336535	      0.00000000	      0.50000000	      0.00000000	      0.25000000	     44.43579277	    -11.13413301	      0.82166606	     38.91320477	      0.67916355	     -8.55907626	     -4.55690604	      0.00000000	      0.00000000	     78.00690960	     -7.88479099	      1.15509030	    114.91488998	      2.00564319	     -1.44398412	      1.75200024	      0.00000000	      0.00000000	    -71.08628788	     -1.95841729	     -6.16699732	     64.66338295	    -11.65498203	     20.67421917	     96.49836904	     49.15040905	      0.00000000	      0.00000000	     67.01183132	    -33.54062925	     25.29365920	     97.92243723	     47.83982501	      0.00000000	      0.00000000
      5.03000000	    -19.47826482	      9.47122223	      1.73816525	      0.30729247	      1.06175672	     -0.26315015	      0.00000000	      0.50000000	      0.00000000	      0.25000000	     43.61611612	    -11.46048018	      0.46116913	     37.99124941	      0.66307239	     -9.36752230	     -3.80302466	      0.00000000	      0.00000000	     79.19722713	     -7.67157073	      1.22594579	    115.37600915	      2.01369124	     -0.61911942	      1.54792755	      0.00000000	      0.00000000	    -71.11046936	     -2.31823129	     -6.58477286	     64.61970540	    -11.72583552	     20.53866204	     96.50450595	     49.13333726	      0.00000000	      0.00000000	     67.42011961	    -33.63495791	     25.40389267	     98.08813271	     47.87042830	      0.00000000	      0.00000000
